<svg aria-hidden="true" style="position:absolute;width:0;height:0;overflow:hidden" xmlns="http://www.w3.org/2000/svg"><defs>

<symbol id="icon-five-star-rate" viewBox="0 0 181 32"><path fill="#ab816c" style="fill:var(--color1, #ab816c)" d="M14.732 3.903c.399-1.228 2.137-1.228 2.536 0l2.025 6.232c.178.549.69.921 1.268.921h6.552c1.292 0 1.829 1.653.784 2.412l-5.301 3.851a1.333 1.333 0 0 0-.484 1.491l2.025 6.232c.399 1.228-1.007 2.25-2.052 1.491l-5.301-3.851a1.334 1.334 0 0 0-1.567 0l-5.301 3.851c-1.045.759-2.451-.262-2.052-1.491l2.025-6.232a1.335 1.335 0 0 0-.484-1.491l-5.301-3.851c-1.045-.759-.508-2.412.784-2.412h6.552c.578 0 1.09-.372 1.268-.921l2.025-6.232zM164.065 3.903c.399-1.228 2.137-1.228 2.536 0l2.025 6.232c.179.549.689.921 1.268.921h6.552c1.292 0 1.828 1.653.784 2.412l-5.301 3.851a1.333 1.333 0 0 0-.484 1.491l2.024 6.232c.4 1.228-1.007 2.25-2.051 1.491l-5.301-3.851a1.336 1.336 0 0 0-1.568 0l-5.301 3.851c-1.044.759-2.451-.262-2.051-1.491l2.024-6.232a1.334 1.334 0 0 0-.484-1.491l-5.301-3.851c-1.044-.759-.508-2.412.784-2.412h6.552c.579 0 1.089-.372 1.268-.921l2.025-6.232zM126.732 3.903c.399-1.228 2.137-1.228 2.536 0l2.025 6.232c.178.549.69.921 1.268.921h6.552c1.292 0 1.828 1.653.784 2.412l-5.301 3.851a1.333 1.333 0 0 0-.484 1.491l2.024 6.232c.4 1.228-1.007 2.25-2.051 1.491l-5.302-3.851a1.334 1.334 0 0 0-1.567 0l-5.301 3.851c-1.045.759-2.451-.262-2.052-1.491l2.025-6.232a1.334 1.334 0 0 0-.484-1.491l-5.301-3.851c-1.045-.759-.508-2.412.784-2.412h6.552c.578 0 1.09-.372 1.268-.921l2.025-6.232zM89.399 3.903c.399-1.228 2.137-1.228 2.536 0l2.025 6.232c.178.549.69.921 1.268.921h6.552c1.292 0 1.829 1.653.784 2.412l-5.301 3.851a1.333 1.333 0 0 0-.484 1.491l2.025 6.232c.399 1.228-1.007 2.25-2.052 1.491l-5.301-3.851a1.334 1.334 0 0 0-1.567 0l-5.301 3.851c-1.045.759-2.451-.262-2.052-1.491l2.025-6.232a1.334 1.334 0 0 0-.484-1.491l-5.301-3.851c-1.045-.759-.508-2.412.784-2.412h6.552c.578 0 1.09-.372 1.268-.921L89.4 3.903zM52.065 3.903c.399-1.228 2.137-1.228 2.536 0l2.025 6.232c.178.549.69.921 1.268.921h6.552c1.292 0 1.829 1.653.784 2.412l-5.301 3.851a1.333 1.333 0 0 0-.484 1.491l2.025 6.232c.399 1.228-1.007 2.25-2.052 1.491l-5.301-3.851a1.334 1.334 0 0 0-1.567 0l-5.301 3.851c-1.045.759-2.451-.262-2.052-1.491l2.025-6.232a1.334 1.334 0 0 0-.484-1.491l-5.301-3.851c-1.045-.759-.508-2.412.784-2.412h6.552c.578 0 1.09-.372 1.268-.921l2.025-6.232z"/></symbol>

<symbol id="icon-chat" viewBox="0 0 32 32"><path fill="#674d40" style="fill:var(--color2, #674d40)" d="M24.62 14.939c0-6.705-6.16-11.099-12.31-11.099C6.135 3.84 0 8.255 0 14.939c0 2.529.965 5.001 2.718 6.963a.333.333 0 0 1 .067.297C2.234 24.513.93 26.603.395 27.395a.889.889 0 0 0-.071.85c.12.272.356.438.621.438h.018c2.618-.075 5.653-.923 7.529-3.039a.246.246 0 0 1 .252-.078c1.153.314 2.353.473 3.566.473 6.173 0 12.31-4.414 12.31-11.099zm-15.66 9.58c-.408-.111-.828.023-1.125.358-1.876 2.116-4.939 2.597-6.39 2.704.662-1.049 1.74-2.976 2.244-5.099.115-.485-.006-1.003-.317-1.351C1.779 19.348.937 17.207.937 14.938c0-5.527 5.102-10.024 11.373-10.024s11.373 4.497 11.373 10.024-5.102 10.024-11.373 10.024c-1.141 0-2.268-.149-3.35-.444z"/><path fill="#674d40" style="fill:var(--color2, #674d40)" d="M27.635 23.875C30.368 22.291 32 19.59 32 16.651c0-4.154-3.273-7.703-7.782-8.44-.256-.042-.494.163-.53.457s.142.566.398.608c4.043.66 6.977 3.762 6.977 7.375 0 2.525-1.439 4.867-3.85 6.264-.469.272-.72.873-.611 1.461.228 1.232.715 2.373 1.104 3.147-2.768-.529-3.817-2.052-4.149-2.712-.205-.407-.588-.659-1.001-.659H22.518c-.52 0-1.04-.041-1.547-.123-.256-.041-.493.164-.529.458s.143.566.399.607c.55.089 1.114.133 1.677.133h.039c.078 0 .15.046.188.122 1.27 2.524 4.188 3.169 5.384 3.329.264.035.516-.103.657-.362s.139-.578-.005-.835c-.36-.644-1.003-1.932-1.262-3.328a.266.266 0 0 1 .117-.278zM5.016 13.016c-.896 0-1.625.836-1.625 1.864s.729 1.864 1.625 1.864 1.625-.836 1.625-1.864-.729-1.864-1.625-1.864zm0 2.652c-.379 0-.687-.354-.687-.788s.308-.788.687-.788.687.354.687.788c0 .435-.308.788-.687.788zM9.651 13.016c-.896 0-1.625.836-1.625 1.864s.729 1.864 1.625 1.864 1.625-.836 1.625-1.864-.729-1.864-1.625-1.864zm0 2.652c-.379 0-.687-.354-.687-.788s.308-.788.687-.788.687.354.687.788c0 .435-.308.788-.687.788zM14.285 13.016c-.896 0-1.625.836-1.625 1.864s.729 1.864 1.625 1.864 1.625-.836 1.625-1.864-.729-1.864-1.625-1.864zm0 2.652c-.379 0-.687-.354-.687-.788s.308-.788.687-.788c.379 0 .687.354.687.788s-.308.788-.687.788zM18.92 13.016c-.896 0-1.625.836-1.625 1.864s.729 1.864 1.625 1.864 1.625-.836 1.625-1.864-.729-1.864-1.625-1.864zm0 2.652c-.379 0-.687-.354-.687-.788s.308-.788.687-.788c.379 0 .687.354.687.788s-.308.788-.687.788z"/></symbol>

<symbol id="icon-chef-hat" viewBox="0 0 32 32"><path fill="#674d40" style="fill:var(--color2, #674d40)" d="M23.047 8.572c-.114 0-.223-.052-.304-.144s-.126-.218-.126-.349c-.033-1.889-.711-3.688-1.887-5.011s-2.758-2.063-4.405-2.063-3.229.741-4.405 2.063c-1.176 1.323-1.854 3.122-1.887 5.011 0 .131-.045.256-.126.349s-.19.144-.304.144c-.114 0-.223-.052-.304-.144s-.126-.218-.126-.349c.029-2.154.795-4.209 2.134-5.72S14.448 0 16.325 0c1.878 0 3.68.847 5.018 2.359s2.104 3.566 2.134 5.72c0 .131-.045.256-.126.349s-.19.144-.304.144z"/><path fill="#674d40" style="fill:var(--color2, #674d40)" d="M24.302 19.732c-.114.001-.224-.05-.305-.142s-.127-.217-.128-.348c-.001-.131.044-.256.124-.35s.189-.146.303-.147c1.637-.011 3.205-.759 4.366-2.082s1.824-3.117 1.846-4.995c-.016-1.896-.688-3.708-1.866-5.037s-2.769-2.068-4.422-2.054a5.62 5.62 0 0 0-1.873.319c-.108.036-.225.022-.324-.04s-.174-.166-.207-.289c-.033-.124-.022-.258.03-.373s.142-.202.249-.241a6.4 6.4 0 0 1 2.125-.362c1.881-.014 3.69.829 5.03 2.343s2.102 3.577 2.118 5.734c-.022 2.137-.774 4.179-2.095 5.687s-3.104 2.361-4.967 2.376h-.005zM8.346 19.732h-.005c-1.863-.015-3.646-.868-4.967-2.376s-2.073-3.55-2.095-5.687c.016-2.158.778-4.22 2.118-5.734s3.149-2.357 5.03-2.343a6.4 6.4 0 0 1 2.125.362c.055.018.106.049.15.09s.081.092.108.149a.564.564 0 0 1 .033.379c-.017.063-.044.121-.081.171s-.081.092-.132.122a.384.384 0 0 1-.331.032 5.645 5.645 0 0 0-1.873-.319c-1.653-.014-3.243.725-4.422 2.054s-1.85 3.141-1.866 5.037c.021 1.878.684 3.671 1.846 4.995s2.729 2.071 4.366 2.082c.056 0 .112.014.164.039s.099.062.139.108.071.101.092.161a.573.573 0 0 1-.002.378c-.022.06-.054.114-.094.159s-.088.082-.14.106-.108.037-.165.036z"/><path fill="#674d40" style="fill:var(--color2, #674d40)" d="M24.302 32H8.347c-.114 0-.223-.052-.304-.145s-.126-.218-.126-.349V19.239c0-.131.045-.256.126-.349s.19-.144.304-.144.223.052.304.144a.532.532 0 0 1 .126.349v11.774h15.096V19.239c0-.131.045-.256.126-.349s.19-.144.304-.144c.114 0 .223.052.304.144s.126.218.126.349v12.267c0 .131-.045.256-.126.349s-.19.145-.304.145z"/><path fill="#674d40" style="fill:var(--color2, #674d40)" d="M27.294 27.222H11.339c-.114 0-.223-.052-.304-.145s-.126-.218-.126-.349c0-.131.045-.256.126-.349s.19-.145.304-.145h15.955c.114 0 .223.052.304.145s.126.218.126.349c0 .131-.045.256-.126.349s-.19.145-.304.145z"/></symbol>

<symbol id="icon-clock" viewBox="0 0 32 32"><path fill="#674d40" style="fill:var(--color2, #674d40)" d="M16 0C7.178 0 0 7.178 0 16s7.178 16 16 16 16-7.178 16-16S24.822 0 16 0zm0 30.933C7.766 30.933 1.067 24.234 1.067 16S7.766 1.067 16 1.067 30.933 7.766 30.933 16 24.234 30.933 16 30.933z"/><path fill="#674d40" style="fill:var(--color2, #674d40)" d="M16.533 13.878V8.469a.533.533 0 1 0-1.066 0v5.409a2.13 2.13 0 0 0-1.524 1.524h-3.809a.533.533 0 1 0 0 1.066h3.809a2.132 2.132 0 0 0 2.058 1.6 2.135 2.135 0 0 0 2.133-2.133c0-.992-.683-1.819-1.6-2.058zM16 17.002a1.068 1.068 0 0 1 0-2.134 1.068 1.068 0 0 1 0 2.134zM16 5.269a.533.533 0 0 0 .533-.533v-.533a.533.533 0 1 0-1.066 0v.533c0 .295.239.533.533.533zM16 26.602a.533.533 0 0 0-.533.533v.533a.533.533 0 1 0 1.066 0v-.533a.533.533 0 0 0-.533-.533zM27.733 15.402H27.2a.533.533 0 1 0 0 1.066h.533a.533.533 0 1 0 0-1.066zM4.8 15.402h-.533a.533.533 0 1 0 0 1.066H4.8a.533.533 0 1 0 0-1.066zM23.919 7.262l-.377.377a.532.532 0 0 0 .377.91.532.532 0 0 0 .377-.156l.377-.377a.534.534 0 0 0-.754-.754zM7.703 23.478l-.377.377a.532.532 0 0 0 .377.91.532.532 0 0 0 .377-.156l.377-.377a.534.534 0 0 0-.754-.754zM24.297 23.478a.533.533 0 1 0-.754.754l.377.377a.532.532 0 1 0 .754-.754l-.377-.377zM8.081 7.261a.533.533 0 1 0-.754.754l.377.377a.532.532 0 1 0 .754-.754l-.377-.377z"/></symbol>

<symbol id="icon-close" viewBox="0 0 32 32"><path d="M30.355 32a1.646 1.646 0 0 0 1.163-2.811L2.811.482A1.646 1.646 0 1 0 .483 2.811L29.19 31.517a1.65 1.65 0 0 0 1.165.483z"/><path d="M1.645 32c.422 0 .843-.16 1.163-.483L31.517 2.811A1.647 1.647 0 0 0 29.188.482L.481 29.189A1.646 1.646 0 0 0 1.644 32z"/></symbol>

<symbol id="icon-facebook" viewBox="0 0 32 32"><path d="M22.512.007 18.895 0c-4.064 0-6.69 3.091-6.69 7.875v3.631H8.568c-.314 0-.569.292-.569.653v5.261c0 .361.255.652.569.652h3.637v13.275c0 .36.254.652.569.652h4.745c.314 0 .569-.292.569-.652V18.072h4.252c.314 0 .569-.292.569-.652l.002-5.261c0-.173-.06-.339-.167-.461s-.252-.191-.402-.191h-4.254V8.429c0-1.479.307-2.23 1.987-2.23l2.437-.001c.314 0 .568-.292.568-.652V.661c0-.36-.254-.652-.568-.652z"/></symbol>

<symbol id="icon-instagram" viewBox="0 0 32 32"><path d="M16.316 32h-.319c-2.508.006-4.826-.058-7.08-.195-2.066-.126-3.953-.84-5.455-2.065-1.45-1.182-2.44-2.781-2.942-4.75-.438-1.715-.461-3.398-.483-5.026a343.853 343.853 0 0 1-.036-3.96c.003-1.414.02-2.798.036-3.966.022-1.628.045-3.311.483-5.026.503-1.97 1.493-3.568 2.942-4.75C4.965 1.037 6.851.323 8.918.197 11.172.06 13.49-.004 16.004.002c2.509-.005 4.826.058 7.08.195 2.066.126 3.953.84 5.455 2.065 1.45 1.182 2.44 2.781 2.943 4.75.437 1.715.461 3.398.483 5.026.016 1.168.033 2.553.036 3.96v.006c-.003 1.408-.02 2.792-.036 3.96-.022 1.628-.045 3.311-.483 5.026-.503 1.97-1.493 3.568-2.943 4.75-1.502 1.225-3.389 1.939-5.455 2.065-2.159.131-4.376.195-6.768.195zm-.319-2.5c2.468.006 4.733-.056 6.934-.19 1.563-.095 2.917-.602 4.027-1.507 1.026-.837 1.732-1.991 2.1-3.431.364-1.428.385-2.96.406-4.442.016-1.16.032-2.535.036-3.929-.004-1.394-.02-2.769-.036-3.929-.02-1.482-.041-3.015-.406-4.443-.367-1.44-1.074-2.594-2.1-3.431-1.11-.905-2.465-1.412-4.027-1.507a108.807 108.807 0 0 0-6.928-.19c-2.467-.006-4.733.056-6.934.19-1.563.095-2.917.602-4.027 1.507-1.026.837-1.732 1.991-2.1 3.431-.364 1.428-.385 2.96-.406 4.443a363.726 363.726 0 0 0-.036 3.932c.003 1.389.02 2.765.036 3.926.02 1.482.041 3.015.406 4.442.367 1.44 1.074 2.594 2.1 3.431 1.11.905 2.465 1.412 4.027 1.507 2.201.134 4.467.197 6.928.191zm-.06-5.688c-4.308 0-7.813-3.505-7.813-7.812s3.505-7.813 7.813-7.813S23.75 11.692 23.75 16s-3.505 7.812-7.813 7.812zm0-13.125c-2.929 0-5.313 2.383-5.313 5.313s2.383 5.312 5.313 5.312c2.93 0 5.313-2.383 5.313-5.312s-2.383-5.313-5.313-5.313zm8.688-5a1.875 1.875 0 1 0 0 3.75 1.875 1.875 0 0 0 0-3.75z"/></symbol>

<symbol id="icon-location" viewBox="0 0 23 32"><path d="M11.733 0c6.47 0 11.733 5.13 11.733 11.435 0 2.495-.809 4.866-2.341 6.855l-8.669 11.379c-.022.028-.055.038-.079.063a.888.888 0 0 1-1.367-.063c-2.496-3.247-7.072-9.309-8.832-11.596l-.001-.003-.011-.014a11.154 11.154 0 0 1-2.167-6.621C-.001 5.13 5.263 0 11.732 0zm0 17.604c3.483 0 6.33-2.774 6.33-6.169s-2.847-6.169-6.33-6.169-6.33 2.774-6.33 6.169 2.847 6.169 6.33 6.169z"/></symbol>

<symbol id="icon-logo-desktop" viewBox="0 0 61 32"><path d="M36.151 16.031c0 .256-.007.512 0 .768.076 2.603-.629 4.949-1.762 7.16a33.89 33.89 0 0 0-1.07 2.271c-.27.637-.645 1.083-1.228 1.344-.326.145-.628.397-.901.657-1.257 1.196-2.683 2.052-4.208 2.655-1.013.4-2.056.753-3.156.737-.328-.004-.657.112-.986.113s-.657-.122-.983-.105c-1.419.07-2.734-.433-4.039-.961-1.424-.576-2.682-1.485-3.865-2.569-1.67-1.529-2.859-3.454-3.734-5.658-.471-1.188-.855-2.414-.964-3.733-.018-.219-.081-.435-.137-.648-.397-1.479-.169-2.929.077-4.403.188-1.127.381-2.24.747-3.31.967-2.83 2.502-5.148 4.628-6.968C16.343 1.865 18.327.933 20.484.533c2.475-.459 4.892-.129 7.236.945 1.17.537 2.274 1.218 3.238 2.119.899.84 1.71 1.824 2.477 2.829.694.911 1.187 1.996 1.628 3.103.688 1.729 1.136 3.519 1.09 5.443-.01.355-.003.708-.003 1.06zm-.95-3.504c-.068-.604-.111-1.305-.239-1.984-.365-1.955-1.348-3.482-2.658-4.728-.744-.709-1.554-1.324-2.354-1.951-.271-.212-.585-.407-.901-.472-.812-.172-1.634-.333-2.457-.382-1.429-.084-2.713-.509-3.792-1.653-.794-.842-1.659-.924-2.485-.182-.936.839-2 1.332-3.086 1.82-.795.357-1.561.808-2.326 1.253-.639.372-1.011.953-1.002 1.833.005.493-.191.905-.588 1.179a9.011 9.011 0 0 0-.951.759c-.846.767-1.505 1.631-1.647 2.971-.113 1.06-.391 2.108-1.022 2.981a2.17 2.17 0 0 0-.376 1.049c-.058.792-.034 1.594-.017 2.392.005.213.085.442.18.63.218.444.455.874.711 1.29.619.992 1.158 2.008 1.282 3.268.12 1.22.632 2.215 1.498 2.974 1.254 1.1 2.463 2.268 3.736 3.339.684.577 1.417 1.082 2.319 1.199s1.787.4 2.596.924c.17.105.356.171.547.193 1.142.142 2.198-.184 3.2-.799.314-.193.638-.368.963-.536.783-.404 1.652-.669 2.334-1.232.759-.627 1.571-.905 2.442-1.081.376-.076.684-.255.929-.577.292-.383.563-.787.868-1.157.315-.381.543-.787.598-1.331.084-.833.394-1.569.787-2.276.665-1.194 1.043-2.514 1.24-3.918.052-.368.081-.679-.077-1.003-.458-.935-.271-1.997-.416-2.992-.073-.538.095-1.127.166-1.797l-.002.001zm-5.509-9.34c-.193-.246-.255-.357-.342-.426-.158-.126-.33-.229-.498-.338-1.437-.932-3.01-1.385-4.618-1.711-.323-.066-.663-.036-.992-.022-.086.004-.188.1-.243.186-.025.039.031.177.079.243a3.12 3.12 0 0 0 1.35 1.072 7.983 7.983 0 0 0 2.826.611c.408.013.816.102 1.223.166.347.057.693.125 1.216.219zM17.486 30.053c-.964-.908-1.81-1.719-2.67-2.509a97.596 97.596 0 0 0-2.168-1.915c-.082-.071-.211-.069-.39-.122.877 1.696 3.806 4.273 5.227 4.546zM10.988 8.869c.582-.512 1.12-1.05 1.71-1.496.828-.622 1.145-1.394.949-2.721-.588.554-1.007 1.22-1.46 1.826-.479.639-.834 1.4-1.233 2.115-.031.058.019.172.034.276zm19.614 19.355c-.543-.043-1.089.067-1.429.405-.646.64-1.414.961-2.196 1.281-.41.168-.797.414-1.184.649-.053.032-.063.205-.052.307.004.034.148.091.208.067.702-.276 1.427-.498 2.092-.866.815-.45 1.58-1.021 2.36-1.55.082-.053.125-.178.201-.294zM9.875 19.353c-.156.529-.125.823-.027 1.135.272.866.437 1.78.927 2.537.182.281.219.908.554.773.295-.118-.05-.615-.07-.95-.077-1.28-.662-2.311-1.384-3.495zm5.263-15.938.073.126c.405-.173.814-.337 1.216-.522.872-.403 1.741-.813 2.608-1.231.175-.085.335-.221.484-.359.042-.039.034-.172.021-.254-.007-.037-.089-.076-.137-.079a.73.73 0 0 0-.239.046c-1.178.385-2.289.956-3.352 1.648-.249.162-.45.414-.673.624zm20.69 13.745c.071-.095.127-.135.131-.18.115-1.394-.013-2.776-.179-4.154-.008-.069-.092-.168-.148-.177-.063-.009-.16.05-.198.115a.818.818 0 0 0-.113.345 15.18 15.18 0 0 0 .194 3.395c.038.226.2.424.314.655zM9.591 13.312c.46-.202.528-.568.578-.898.12-.805.42-1.58.321-2.431-.481 1.016-.907 2.045-.899 3.329zm11.127 17.673c-1.031-.525-1.31-.58-2.228-.433.389.17.739.439 1.091.444.367.006.765.524 1.137-.011z"/><path d="M22.843 20.542c-.705-.015-1.189-.354-1.547-1.011-.334-.612-.889-.93-1.398-1.307-.641-.475-1.163-1.011-1.311-1.975a2.998 2.998 0 0 1 .247-1.736 2.8 2.8 0 0 1 .9-1.088c.393-.278.718-.54.9-1.053.205-.591.722-.626 1.18-.733.431-.1.87-.164 1.295-.289.582-.171 1.109-.118 1.534.403.328.405.712.695 1.139.941.445.255.591.553.452 1.086-.095.362-.003.608.114.897.128.315.26.635.348.968.293 1.107-.044 2.039-.946 2.532-.559.305-.987.713-1.126 1.429-.056.289-.212.452-.433.527-.446.15-.899.274-1.348.409zm2.958-4.641c.014-1.95-1.269-3.51-2.938-3.512-1.498 0-3.004 1.167-3.063 3.404-.047 1.79 1.248 3.458 2.936 3.464 2.056.012 3.025-1.632 3.065-3.356zm-6.017 1.864c0-.25.021-.378-.003-.493-.221-1.059-.365-2.109.137-3.129.036-.073-.047-.224-.075-.339-.099.037-.218.044-.292.115-.83.784-1.2 2.667.234 3.847zm3.081-5.865c.347.146.545.25.753.315.765.233 1.417.652 1.871 1.424.09.152.205.378.376.205.091-.092.121-.375.068-.516-.071-.188-.232-.422-.386-.459-.42-.101-.65-.452-.924-.757-.46-.509-.975-.669-1.758-.211zm-.047 7.676-.01-.074c-.22 0-.443-.022-.66.009-.112.016-.213.125-.319.192.096.098.18.252.291.284.593.172 1.19.209 1.774-.054.1-.045.211-.104.274-.197a.525.525 0 0 0 .062-.324c-.004-.039-.143-.099-.211-.086-.401.072-.801.164-1.2.249l-.002.001zm3.03-2c.41-.088.594-.354.618-.764a8.157 8.157 0 0 0-.013-1.037c-.006-.091-.117-.172-.179-.258-.091.1-.277.233-.26.293.167.598-.182 1.133-.166 1.764v.001zM29.603 20.276c-.024.014-.119.106-.222.118-.094.013-.231-.024-.289-.099a16.734 16.734 0 0 1-.836-1.176c-.068-.107-.096-.394-.057-.418.128-.081.379-.167.435-.096.33.419.621.88.919 1.332.029.045.02.123.05.34zM15.628 23.56c.153.014.454.025.748.083.073.015.171.18.171.278s-.084.268-.158.289c-.571.163-1.14.204-1.645-.236-.029-.031-.051-.068-.065-.11s-.019-.087-.016-.132c.011-.066.1-.157.159-.162.219-.021.439-.009.806-.009zM33.53 9.716l.216.136c-.061.126-.099.33-.188.366a7.94 7.94 0 0 1-1.263.415c-.123.028-.303-.112-.417-.227-.131-.133-.053-.423.113-.452.487-.086.977-.152 1.539-.238zM18.988 26.378c.229.123.42.157.513.289.256.365.49.75.7 1.152.103.191.009.398-.164.454-.095.03-.266-.059-.336-.157a12.751 12.751 0 0 1-.774-1.214c-.055-.1.03-.302.061-.522zM27.954 11.145c.014-.112 0-.24.046-.289.062-.065.194-.118.257-.083.087.048.143.178.202.281.166.286.329.573.487.866.07.131.165.271.171.412a.59.59 0 0 1-.148.39c-.048.05-.244.018-.292-.052-.316-.463-.695-.896-.723-1.526zM28.938 6.23c-.068.472-.096.82-.175 1.153a.96.96 0 0 1-.274.456c-.091.084-.249.072-.376.103-.01-.137-.048-.281-.026-.411.067-.402.156-.8.236-1.199.006-.031.004-.064.012-.094.063-.241.199-.424.417-.325.11.05.161.271.186.317zM23.04 9.302c.192.028.441.043.678.109.081.022.201.191.187.263-.025.13-.118.3-.217.339a.725.725 0 0 1-.482.003c-.274-.1-.529-.134-.801-.002-.179.087-.348-.004-.395-.21-.064-.276.116-.409.318-.448.216-.041.438-.035.713-.053zM27.306 22.874c-.078.391-.137.734-.221 1.069-.016.066-.137.154-.187.139-.091-.026-.219-.108-.237-.194a1.477 1.477 0 0 1-.014-.566c.064-.343.128-.669.007-1.02-.057-.168-.041-.436.181-.435.119 0 .291.17.345.311.087.225.093.489.127.697zM23.94 22.774c-.044.092-.066.2-.125.246-.36.286-.721.573-1.1.823-.097.064-.267.024-.39-.018-.181-.062-.219-.336-.068-.447.415-.306.832-.609 1.259-.891.068-.045.205.004.294.054.06.035.085.146.131.233zM19.351 4.41c.058.039.169.074.183.136.143.607.281 1.215.394 1.829.031.17-.165.265-.296.163-.414-.32-.671-1.507-.43-2.004.025-.049.086-.074.148-.125zM24.462 6.133c-.125-.096-.259-.144-.277-.227-.02-.09.045-.243.115-.315.303-.312.621-.606.951-.88.111-.09.342-.154.428-.083.202.163.096.394-.045.562-.189.227-.376.466-.594.65-.167.138-.381.198-.577.294zM16.598 9.338l-.302.329c-.086-.107-.214-.197-.25-.325a26.167 26.167 0 0 1-.382-1.526c-.016-.07.034-.215.085-.239.084-.039.222-.055.285 0 .126.107.269.25.31.41.108.417.165.853.254 1.351zM13.287 17.758c-.277.585-.488 1.185-1.005 1.504-.087.054-.279-.015-.372-.1-.158-.144 0-.265.077-.388.242-.384.467-.785.724-1.155.066-.095.235-.142.35-.129.078.008.142.161.226.267zM16.421 17.808c.145.096.25.125.269.189.032.104.049.267 0 .339-.079.115-.215.181-.332.258-.303.2-.603.412-.918.583a.371.371 0 0 1-.356-.034c-.176-.144-.114-.376.027-.478.433-.312.888-.585 1.309-.857zM32.104 15.157c-.111.289-.268.726-.454 1.146-.029.065-.209.1-.285.061-.071-.037-.148-.201-.134-.29.075-.466.157-.935.283-1.385.038-.137.211-.262.344-.308.049-.017.178.197.239.328.035.074.006.187.006.448zM13.2 11.678c.491.507.432 1.196.487 1.831.01.118-.117.287-.219.372-.053.045-.27-.027-.275-.069a41.603 41.603 0 0 1-.184-1.934c-.004-.055.112-.122.192-.201zM24.671 27.379c.082.025.163.056.242.091.295.157.591.311.879.484.137.082.274.184.372.315.113.152-.016.442-.174.403-.535-.133-1.058-.319-1.458-.779-.059-.068-.058-.239-.039-.352.011-.064.115-.108.177-.162zM18.16 11.864c.028.102.126.26.091.359-.18.526-.388 1.039-.599 1.549-.026.063-.137.118-.203.108-.057-.008-.137-.101-.152-.172-.112-.568.241-1.585.636-1.841.041-.026.106-.004.226-.004zM33.458 20.489c-.062-.045-.19-.1-.257-.206-.027-.042.06-.234.134-.296.329-.276.665-.539 1.015-.774.094-.063.291-.068.36.003.064.066.074.315.016.406-.293.471-.664.83-1.268.866zM31.426 24.543c-.254-.03-.364-.033-.47-.061-.045-.011-.111-.072-.112-.112a.46.46 0 0 1 .058-.254.426.426 0 0 1 .205-.148c.391-.135.783-.271 1.18-.381.086-.024.268.042.279.098a.9.9 0 0 1-.051.433c-.024.072-.121.131-.195.157-.34.108-.681.204-.894.267zM19.642 21.289c-.028.137-.074.442-.161.729-.022.071-.193.14-.272.114s-.171-.175-.169-.268c.008-.531.031-1.063.078-1.592.01-.115.137-.217.21-.325.088.107.23.201.252.323.05.274.039.562.062 1.019zM37.981 4.672c0-1.125.236-1.978.709-2.559.478-.587 1.091-.881 1.837-.881s1.34.253 1.78.76c.446.507.669 1.317.669 2.429s-.236 1.953-.709 2.522c-.473.569-1.104.853-1.893.853-.682 0-1.241-.226-1.676-.677-.225-.235-.403-.559-.532-.974-.124-.42-.185-.912-.185-1.474zm2.522-3.348c-.542 0-.988.278-1.337.835-.344.556-.515 1.372-.515 2.448s.164 1.861.492 2.355c.327.495.763.742 1.305.742.548 0 .994-.278 1.337-.835.349-.563.524-1.375.524-2.439 0-1.069-.166-1.854-.499-2.355-.328-.501-.763-.751-1.305-.751zM44.37 7.759h-.669V1.268h.669v2.986h2.619V1.268h.669v6.491h-.669V4.347H44.37v3.412zM51.095 7.759h-.105l.701-6.491h.266l1.692 5.999 1.684-5.999h.266l.701 6.491h-.669l-.556-5.192-1.458 5.192h-.508l-1.474-5.128-.54 5.128zM60.763 1.269a.667.667 0 0 1 .153.454c0 .155-.03.312-.089.473l-1.442 3.366v2.197h-.669V5.765l-1.612-4.497h.685l1.539 4.182 1.402-3.255c.059-.155.089-.315.089-.482s-.04-.297-.121-.389l.064-.056zM1.136 9.465c.416-.022.823-.033 1.221-.033.407 0 .833.049 1.278.147.454.098.899.283 1.335.556.445.261.819.605 1.122 1.029.312.414.563.964.753 1.65s.284 1.52.284 2.5-.142 1.863-.426 2.647c-.274.773-.653 1.367-1.136 1.781-.937.806-2.068 1.209-3.393 1.209-.464 0-.951-.022-1.462-.065h-.71V9.465h1.136zm.042 11.29c.199.022.45.033.752.033s.53-.005.681-.016c.151-.011.36-.054.625-.131.265-.087.511-.202.738-.343s.464-.349.71-.621c.256-.283.473-.615.653-.997.407-.893.611-2.059.611-3.497 0-1.024-.109-1.906-.327-2.647-.218-.752-.469-1.307-.752-1.667a3.001 3.001 0 0 0-1.008-.85c-.398-.218-.715-.343-.951-.376s-.511-.049-.823-.049-.615.016-.909.049v11.111zM38.212 20.886h-.185V9.448h.483l5.906 10.572V9.448h.185v11.438h-1.036l-5.353-9.477v9.477zM53.343 9.448h.185v6.536c0 1.71-.293 2.968-.88 3.774-.587.795-1.354 1.193-2.3 1.193-.596 0-1.103-.06-1.519-.18a3.145 3.145 0 0 1-1.179-.703c-.757-.675-1.136-2.037-1.136-4.085V9.447h1.179v6.519c0 1.983.26 3.306.781 3.97.265.327.539.55.824.67.293.12.643.18 1.051.18.909 0 1.633-.381 2.172-1.144.549-.773.824-1.999.824-3.676V9.447zM58.371 20.886h-1.179V9.612h-2.456v-.163h6.105v.163H58.37v11.274z"/></symbol>

<symbol id="icon-logo-menu" viewBox="0 0 72 32"><path d="M42.45 15.997c0 .261-.008.521 0 .783.089 2.653-.739 5.043-2.069 7.296a32.692 32.692 0 0 0-1.256 2.314c-.317.649-.757 1.104-1.442 1.37-.382.148-.737.405-1.058.669-1.476 1.218-3.15 2.091-4.941 2.705-1.189.408-2.414.767-3.706.751-.385-.004-.771.114-1.157.115s-.772-.124-1.154-.108c-1.666.071-3.21-.441-4.742-.979-1.673-.586-3.15-1.513-4.539-2.617-1.961-1.558-3.358-3.52-4.385-5.765-.554-1.211-1.004-2.46-1.132-3.804-.021-.223-.095-.444-.161-.66-.466-1.507-.198-2.985.09-4.486.22-1.148.447-2.283.877-3.373 1.135-2.884 2.938-5.245 5.435-7.1C19.191 1.563 21.521.614 24.054.206c2.907-.468 5.744-.131 8.497.963 1.374.548 2.67 1.241 3.802 2.159 1.056.856 2.008 1.858 2.908 2.883.815.928 1.394 2.034 1.911 3.162.807 1.762 1.333 3.586 1.28 5.546-.012.362-.003.721-.003 1.08zm-1.115-3.57c-.081-.616-.131-1.329-.281-2.022-.429-1.992-1.583-3.548-3.121-4.818-.873-.722-1.825-1.349-2.763-1.988-.318-.216-.687-.415-1.058-.481-.954-.176-1.919-.34-2.886-.389-1.678-.085-3.186-.518-4.453-1.685-.933-.858-1.948-.941-2.917-.186-1.099.855-2.349 1.357-3.624 1.854-.934.364-1.833.823-2.731 1.276-.75.379-1.187.971-1.177 1.867.006.503-.225.923-.69 1.201-.388.234-.762.492-1.117.773-.993.781-1.767 1.661-1.934 3.027-.132 1.08-.459 2.148-1.2 3.038a2.032 2.032 0 0 0-.442 1.069c-.068.807-.04 1.625-.02 2.437.006.217.1.451.211.642.256.452.534.891.835 1.315.727 1.01 1.359 2.046 1.505 3.329.141 1.244.742 2.257 1.759 3.03 1.473 1.121 2.892 2.311 4.387 3.402.803.588 1.663 1.102 2.723 1.221s2.098.408 3.048.941c.199.107.418.174.643.197 1.34.144 2.581-.187 3.758-.814.369-.197.749-.375 1.131-.546.92-.412 1.94-.682 2.741-1.255.891-.639 1.845-.923 2.868-1.101.442-.077.803-.259 1.091-.588.344-.39.661-.802 1.019-1.179.37-.389.637-.802.702-1.356.099-.849.463-1.599.924-2.319.781-1.217 1.225-2.562 1.456-3.992.061-.375.095-.692-.091-1.023-.538-.953-.318-2.035-.488-3.049-.086-.548.112-1.148.195-1.832l-.002.001zm-6.47-9.518c-.227-.251-.299-.364-.402-.434-.186-.128-.388-.233-.585-.344-1.687-.95-3.535-1.412-5.423-1.743-.379-.067-.778-.037-1.165-.022-.101.004-.221.102-.285.19-.029.04.037.18.092.248.42.5.968.878 1.585 1.092 1.066.383 2.186.594 3.319.623.48.013.958.104 1.436.169.407.058.814.127 1.428.223zM20.532 30.284c-1.132-.925-2.125-1.752-3.135-2.556a114.272 114.272 0 0 0-2.545-1.951c-.096-.072-.247-.07-.458-.124 1.03 1.728 4.469 4.353 6.138 4.632zM12.903 8.699c.683-.521 1.315-1.07 2.008-1.524.972-.633 1.344-1.421 1.115-2.773-.69.564-1.182 1.244-1.714 1.861-.562.651-.979 1.426-1.448 2.155-.036.059.022.175.039.281zm23.03 19.722c-.637-.044-1.279.069-1.678.412-.758.652-1.661.98-2.578 1.306-.482.171-.936.422-1.39.661-.063.033-.074.209-.061.313.004.035.174.092.244.069.824-.281 1.676-.507 2.456-.883.957-.459 1.856-1.04 2.772-1.579.096-.054.147-.181.236-.299zm-24.337-9.039c-.183.54-.147.838-.032 1.156.319.883.513 1.814 1.089 2.585.213.286.257.925.651.787.347-.12-.059-.627-.083-.968-.091-1.304-.777-2.355-1.625-3.561zm6.179-16.24.086.129c.476-.176.956-.343 1.428-.532 1.024-.41 2.045-.829 3.062-1.254a2.48 2.48 0 0 0 .568-.366c.049-.04.04-.175.025-.258-.008-.037-.105-.078-.161-.08a.997.997 0 0 0-.281.047c-1.383.393-2.688.974-3.936 1.68-.292.165-.529.422-.791.636zm24.296 14.005c.084-.097.149-.138.154-.183.135-1.421-.016-2.829-.21-4.233-.01-.071-.108-.172-.174-.18-.073-.01-.188.051-.233.117a.757.757 0 0 0-.133.352 13.522 13.522 0 0 0 .227 3.46c.044.23.235.432.369.668zm-30.809-3.92c.54-.206.621-.578.678-.915.141-.82.494-1.61.377-2.477-.564 1.035-1.065 2.083-1.055 3.392zm13.066 18.007c-1.21-.535-1.538-.591-2.616-.441.457.173.868.448 1.281.452.431.006.898.534 1.335-.011z"/><path d="M26.823 20.593c-.827-.015-1.396-.361-1.817-1.03-.392-.624-1.044-.947-1.642-1.332-.753-.484-1.366-1.03-1.54-2.012-.12-.665.02-1.243.29-1.769.227-.439.632-.847 1.057-1.108.461-.283.844-.55 1.056-1.073.241-.602.848-.638 1.386-.746.506-.102 1.021-.167 1.521-.295.683-.174 1.303-.12 1.802.411.386.412.836.708 1.338.958.522.26.695.564.531 1.107-.111.369-.004.62.134.914.15.321.305.647.408.986.344 1.128-.052 2.077-1.111 2.58-.656.311-1.159.726-1.322 1.456a.682.682 0 0 1-.509.537c-.524.153-1.055.28-1.583.417zm3.474-4.729c.017-1.987-1.49-3.576-3.45-3.579-1.759 0-3.528 1.189-3.596 3.469-.055 1.824 1.465 3.524 3.447 3.53 2.414.012 3.552-1.663 3.599-3.42zm-7.066 1.9c0-.255.024-.385-.004-.503-.26-1.079-.429-2.148.161-3.188.043-.075-.055-.229-.088-.346-.116.037-.255.045-.343.117-.974.799-1.409 2.718.274 3.92zm3.618-5.977c.408.149.64.255.884.321.898.237 1.664.664 2.197 1.451.105.155.241.385.442.209.107-.094.142-.382.08-.526-.083-.191-.272-.43-.454-.468-.493-.103-.763-.46-1.085-.771-.541-.519-1.144-.682-2.065-.215zm-.055 7.822-.012-.075c-.259 0-.52-.022-.774.009-.131.016-.25.127-.374.195.113.1.211.257.341.29.696.175 1.397.213 2.083-.055.117-.046.248-.106.321-.201.065-.08.086-.223.073-.331-.005-.04-.168-.101-.248-.088-.471.074-.94.167-1.409.254l-.002.001zm3.558-2.038c.482-.089.697-.361.725-.779a7.158 7.158 0 0 0-.015-1.056c-.008-.093-.137-.175-.21-.263-.107.101-.325.238-.305.299.196.609-.213 1.155-.194 1.797v.001zM34.761 20.323c-.028.014-.139.107-.26.12-.11.013-.271-.024-.339-.101a17.095 17.095 0 0 1-.982-1.199c-.08-.109-.113-.401-.067-.426.151-.083.445-.17.511-.098.388.427.729.897 1.079 1.357.034.046.024.125.059.346zM18.351 23.668c.179.014.533.025.878.084.086.015.201.183.201.283s-.099.274-.185.295c-.671.166-1.338.207-1.932-.241a.305.305 0 0 1-.095-.246c.013-.067.117-.16.187-.165.257-.022.516-.01.946-.01zM39.372 9.562l.254.139c-.072.129-.116.336-.221.373a10.45 10.45 0 0 1-1.483.423c-.145.028-.356-.114-.489-.231-.154-.136-.062-.431.132-.461.571-.088 1.147-.155 1.807-.242zM22.297 26.541c.268.125.493.16.602.294.3.372.575.764.822 1.174.12.195.01.406-.192.462-.111.031-.313-.06-.395-.16a12.819 12.819 0 0 1-.909-1.238c-.064-.102.035-.308.071-.532zM32.825 11.018c.017-.114 0-.244.053-.294.072-.066.227-.12.302-.085.102.049.167.182.237.286.194.291.387.584.572.883.083.134.194.276.201.42a.563.563 0 0 1-.174.398c-.056.051-.286.018-.343-.053-.371-.471-.816-.913-.849-1.554zM33.98 6.01c-.08.481-.112.836-.206 1.175a.975.975 0 0 1-.321.465c-.106.086-.292.073-.442.105-.012-.14-.056-.286-.031-.419.078-.41.183-.815.277-1.222.007-.032.005-.065.014-.096.074-.245.234-.432.49-.331.129.051.189.276.219.323zM27.054 9.141c.226.028.518.043.796.111.095.023.236.194.219.268-.029.132-.139.306-.255.345a.974.974 0 0 1-.566.003c-.321-.102-.621-.136-.941-.002-.21.088-.408-.004-.464-.214-.075-.281.136-.417.374-.456.253-.042.515-.035.837-.054zM32.064 22.97c-.091.398-.161.748-.259 1.089-.019.067-.161.157-.22.142-.107-.026-.257-.11-.279-.198a1.307 1.307 0 0 1-.016-.577c.076-.35.15-.682.008-1.039-.067-.171-.048-.444.212-.444.14 0 .342.173.405.316.102.229.109.499.149.71zM28.111 22.868c-.052.093-.078.204-.146.251-.423.291-.847.584-1.292.838-.114.065-.313.025-.458-.018-.212-.063-.257-.342-.08-.455.487-.312.977-.621 1.478-.908.08-.046.241.004.345.055.07.035.1.149.154.237zM22.723 4.155c.069.04.198.075.215.139.168.618.33 1.238.463 1.864.037.174-.193.27-.347.166-.486-.327-.788-1.536-.505-2.042.029-.05.101-.075.174-.128zM28.724 5.911c-.146-.097-.304-.147-.325-.231-.023-.091.053-.247.135-.321a13.57 13.57 0 0 1 1.117-.897c.131-.092.402-.157.502-.085.237.166.112.401-.053.573-.222.231-.442.475-.697.662-.196.141-.447.201-.678.299zM19.489 9.177l-.355.335c-.101-.11-.251-.201-.294-.331a23.988 23.988 0 0 1-.448-1.555c-.018-.072.04-.219.1-.243.098-.04.26-.056.335 0 .147.109.316.254.364.418.127.425.193.87.298 1.377zM15.602 17.757c-.326.596-.573 1.207-1.18 1.533-.102.055-.328-.015-.437-.102-.186-.147 0-.27.09-.395.285-.392.548-.8.85-1.177.078-.097.276-.144.411-.131.092.008.166.164.266.272zM19.282 17.807c.17.098.293.128.316.192.038.106.057.272 0 .346-.093.117-.253.184-.39.263-.356.204-.708.42-1.078.594a.49.49 0 0 1-.418-.035c-.207-.147-.134-.383.032-.487.509-.318 1.043-.596 1.538-.873zM37.698 15.106c-.131.295-.315.74-.533 1.167-.034.066-.245.102-.335.063-.083-.037-.174-.205-.157-.295.088-.475.184-.952.332-1.411.045-.14.248-.267.405-.314.058-.017.209.201.281.334.041.075.007.191.007.457zM15.5 11.562c.576.517.508 1.218.572 1.866.012.12-.138.292-.258.379-.063.046-.317-.028-.323-.07a36.078 36.078 0 0 1-.216-1.971c-.004-.056.131-.125.226-.205zM28.97 27.56c.097.026.192.057.285.093.346.16.695.317 1.032.493.161.083.321.188.437.321.133.154-.019.451-.205.41-.628-.136-1.242-.325-1.712-.794-.07-.069-.068-.243-.045-.358.013-.065.135-.11.208-.165zM21.324 11.751c.033.104.147.265.107.366a23.915 23.915 0 0 1-.704 1.578c-.031.064-.161.12-.238.11-.067-.008-.161-.103-.178-.175-.132-.579.284-1.615.747-1.876.048-.027.124-.004.266-.004zM39.288 20.539c-.072-.046-.223-.102-.301-.209-.031-.043.07-.239.157-.301.387-.281.781-.549 1.192-.789.111-.065.341-.069.423.003.075.067.086.321.018.414-.345.48-.779.846-1.49.883zM36.901 24.67c-.298-.031-.428-.034-.552-.062-.053-.012-.131-.074-.132-.114a.425.425 0 0 1 .068-.259.49.49 0 0 1 .241-.15c.46-.138.919-.276 1.386-.388.101-.024.314.043.328.1.031.137-.006.303-.06.441-.029.073-.142.134-.23.16-.399.11-.8.207-1.049.272zM23.064 21.355c-.033.14-.086.45-.19.742-.026.073-.227.142-.319.116s-.201-.178-.198-.274c.01-.541.037-1.083.092-1.622.012-.118.161-.221.247-.331.103.109.27.205.296.329.058.279.046.573.073 1.039zM44.599 4.422c0-1.146.278-2.016.833-2.608.561-.598 1.28-.898 2.157-.898s1.574.258 2.091.775c.524.516.785 1.342.785 2.475s-.277 1.99-.832 2.57c-.555.579-1.296.869-2.223.869-.801 0-1.457-.23-1.968-.69-.265-.239-.473-.57-.625-.992-.145-.428-.218-.929-.218-1.502zm2.961-3.41c-.637 0-1.16.283-1.57.85-.404.567-.606 1.398-.606 2.494s.192 1.896.577 2.4c.385.504.896.756 1.533.756.643 0 1.167-.283 1.571-.85.41-.573.615-1.401.615-2.485 0-1.09-.195-1.89-.587-2.4a1.827 1.827 0 0 0-1.533-.765zM52.101 7.569h-.785V.955h.785v3.042h3.075V.955h.785v6.614h-.785V4.092h-3.075v3.477zM59.997 7.569h-.123l.823-6.614h.312l1.987 6.113L64.973.955h.312l.823 6.614h-.785l-.653-5.291-1.713 5.291h-.596L60.63 2.344l-.634 5.225zM71.35.955c.12.12.18.274.18.463 0 .157-.035.318-.104.482l-1.694 3.43v2.239h-.785V5.538L67.055.956h.804l1.807 4.261 1.646-3.316c.069-.157.104-.321.104-.491s-.047-.302-.142-.397l.076-.057zM1.334 9.306c.489-.022.967-.033 1.434-.033.478 0 .978.05 1.5.15a5.34 5.34 0 0 1 1.567.566 4.08 4.08 0 0 1 1.317 1.049c.367.422.661.982.884 1.682s.333 1.548.333 2.547c0 .999-.167 1.898-.5 2.697-.322.788-.767 1.393-1.334 1.815-1.1.821-2.429 1.232-3.985 1.232-.545 0-1.117-.022-1.717-.067h-.834V9.306h1.334zm.05 11.505c.233.022.528.033.884.033s.622-.006.8-.017c.178-.011.422-.055.734-.133.311-.089.6-.205.867-.35s.545-.355.834-.633c.3-.289.556-.627.767-1.016.478-.91.717-2.098.717-3.563 0-1.043-.128-1.942-.383-2.697-.256-.766-.55-1.332-.884-1.698a3.443 3.443 0 0 0-1.184-.866c-.467-.222-.839-.35-1.117-.383s-.6-.05-.967-.05-.722.017-1.067.05v11.321zM44.869 20.944h-.216V9.29h.567l6.936 10.772V9.29h.216v11.654h-1.217l-6.286-9.656v9.656zM62.638 9.29h.217v6.66c0 1.743-.344 3.025-1.034 3.846-.689.81-1.589 1.215-2.701 1.215-.7 0-1.295-.061-1.784-.183a3.843 3.843 0 0 1-1.384-.716c-.889-.688-1.333-2.076-1.333-4.162V9.29h1.384v6.643c0 2.02.306 3.369.917 4.046.311.333.634.561.967.683.345.122.756.183 1.234.183 1.067 0 1.917-.388 2.551-1.165.645-.788.967-2.037.967-3.746V9.291zM68.542 20.944h-1.384V9.456h-2.884V9.29h7.169v.166h-2.901v11.488z"/></symbol>

<symbol id="icon-logo-mobile" viewBox="0 0 68 32"><path d="M40.514 15.811c0 .255-.008.511 0 .766.085 2.598-.705 4.939-1.975 7.146-.426.74-.832 1.493-1.199 2.266-.302.636-.723 1.081-1.376 1.342-.365.145-.703.396-1.009.655-1.408 1.193-3.006 2.048-4.715 2.65-1.135.4-2.304.751-3.537.735-.368-.004-.736.112-1.105.113s-.736-.121-1.101-.105c-1.59.07-3.063-.432-4.526-.959-1.596-.574-3.006-1.482-4.332-2.564-1.871-1.526-3.204-3.447-4.185-5.647-.528-1.186-.958-2.41-1.08-3.725-.02-.218-.091-.435-.153-.646-.445-1.476-.189-2.924.086-4.394.21-1.125.427-2.236.837-3.304 1.083-2.825 2.804-5.138 5.187-6.954 1.987-1.513 4.21-2.443 6.628-2.843 2.774-.459 5.482-.128 8.11.943 1.311.536 2.548 1.216 3.628 2.115 1.008.839 1.917 1.82 2.776 2.823.778.909 1.331 1.992 1.824 3.097.771 1.726 1.273 3.512 1.222 5.432-.011.355-.003.706-.003 1.058zm-1.065-3.497c-.077-.603-.125-1.302-.268-1.98-.409-1.951-1.511-3.475-2.979-4.719-.833-.707-1.742-1.322-2.638-1.947-.303-.212-.656-.406-1.01-.471-.91-.172-1.831-.333-2.754-.381-1.602-.084-3.04-.508-4.25-1.65-.89-.84-1.859-.922-2.784-.182-1.049.838-2.242 1.33-3.458 1.816-.891.357-1.75.806-2.607 1.25-.716.372-1.133.951-1.123 1.829.006.492-.214.904-.659 1.176a10.18 10.18 0 0 0-1.066.757c-.948.765-1.687 1.627-1.846 2.965-.126 1.058-.438 2.104-1.145 2.975-.236.3-.383.663-.422 1.047-.065.791-.038 1.591-.019 2.387.005.213.095.441.202.629.244.443.51.873.797 1.288.694.99 1.297 2.004 1.437 3.261.135 1.218.708 2.21 1.679 2.968 1.405 1.098 2.76 2.263 4.187 3.332.767.576 1.588 1.08 2.599 1.196s2.003.399 2.909.922c.19.105.398.171.613.193 1.279.141 2.463-.184 3.587-.798.352-.193.715-.367 1.08-.535.878-.403 1.851-.668 2.616-1.229.851-.626 1.76-.904 2.737-1.079.422-.076.767-.254 1.041-.576.328-.382.631-.786.973-1.155.353-.381.608-.786.67-1.328.095-.832.442-1.566.882-2.272.745-1.192 1.169-2.509 1.389-3.91.058-.367.091-.678-.087-1.002-.513-.933-.304-1.993-.466-2.986-.082-.537.107-1.124.186-1.794l-.002.001zm-6.174-9.322c-.217-.246-.285-.357-.383-.425-.177-.126-.37-.228-.559-.337C30.723 1.3 28.96.847 27.158.522 26.796.456 26.415.486 26.046.5c-.096.004-.211.099-.272.186-.028.039.035.177.088.242.401.49.924.86 1.513 1.069a9.866 9.866 0 0 0 3.167.61c.458.013.914.102 1.37.165.389.057.777.125 1.362.218zM19.596 29.805c-1.081-.906-2.028-1.716-2.992-2.504a111.381 111.381 0 0 0-2.429-1.911c-.092-.071-.236-.069-.437-.122.983 1.693 4.265 4.264 5.858 4.537zM12.315 8.663c.652-.511 1.255-1.048 1.917-1.493.928-.62 1.283-1.392 1.064-2.716-.659.552-1.128 1.218-1.636 1.823-.537.638-.935 1.397-1.382 2.111-.034.058.021.172.038.275zm21.979 19.316c-.608-.043-1.22.067-1.602.404-.724.638-1.585.959-2.461 1.279-.46.167-.894.413-1.327.648-.06.032-.071.205-.059.306.004.034.166.09.233.067.787-.275 1.599-.497 2.344-.864.914-.45 1.771-1.019 2.645-1.547.092-.053.14-.177.225-.293zm-23.227-8.853c-.175.528-.14.821-.03 1.133.305.864.49 1.777 1.039 2.532.204.28.245.906.621.771.331-.118-.056-.614-.079-.948-.087-1.277-.741-2.307-1.551-3.488zM16.964 3.22l.082.126c.454-.173.913-.336 1.363-.521.977-.402 1.951-.812 2.923-1.229a2.38 2.38 0 0 0 .542-.358c.047-.039.038-.171.024-.253-.008-.037-.1-.076-.153-.079a.908.908 0 0 0-.268.046c-1.32.385-2.565.954-3.757 1.645-.279.162-.505.413-.754.623zm23.188 13.717c.08-.095.142-.135.147-.18.129-1.392-.015-2.771-.201-4.146-.009-.069-.103-.168-.166-.176-.07-.009-.179.05-.222.115a.749.749 0 0 0-.127.345c-.07 1.134.003 2.273.217 3.389.042.225.224.423.352.654zm-29.404-3.84c.515-.202.592-.567.647-.896.135-.803.471-1.577.36-2.426-.539 1.014-1.016 2.041-1.007 3.322zm12.47 17.638c-1.155-.524-1.468-.579-2.496-.432.436.169.828.438 1.223.443.411.006.857.523 1.274-.011z"/><path d="M25.6 20.313c-.79-.015-1.332-.354-1.734-1.009-.374-.611-.997-.928-1.567-1.304-.719-.474-1.303-1.009-1.469-1.971-.115-.652.019-1.218.277-1.733a2.9 2.9 0 0 1 1.009-1.086c.44-.277.805-.539 1.008-1.051.23-.589.81-.625 1.323-.731.483-.1.975-.164 1.451-.289.652-.171 1.243-.118 1.719.403.368.404.798.693 1.277.939.498.255.663.552.507 1.084-.106.361-.003.607.128.895.143.314.291.634.389.966.328 1.105-.049 2.035-1.06 2.527-.626.305-1.106.711-1.262 1.426a.66.66 0 0 1-.485.526c-.5.15-1.007.274-1.511.408zm3.315-4.632c.016-1.946-1.422-3.503-3.293-3.505-1.678 0-3.367 1.165-3.432 3.397-.053 1.787 1.398 3.451 3.29 3.457 2.304.012 3.39-1.629 3.435-3.35zm-6.743 1.861c0-.25.023-.377-.003-.492-.248-1.057-.409-2.104.153-3.123.041-.073-.053-.224-.084-.339-.11.037-.244.044-.327.114a2.426 2.426 0 0 0 .262 3.839zm3.452-5.854c.389.146.611.25.843.314.857.233 1.588.651 2.097 1.421.1.152.23.377.422.204.102-.092.135-.374.077-.515-.079-.187-.26-.421-.433-.458-.471-.101-.728-.451-1.035-.756-.516-.508-1.092-.668-1.971-.211zm-.053 7.661-.012-.073c-.247 0-.496-.022-.739.009-.125.016-.238.125-.357.191.108.098.202.252.326.284.664.172 1.333.209 1.988-.054.112-.045.237-.104.307-.196.062-.079.082-.218.07-.324-.005-.039-.16-.099-.236-.086-.45.072-.897.163-1.344.249l-.002.001zm3.396-1.996c.46-.088.666-.354.692-.763.02-.345.015-.691-.015-1.034-.007-.091-.131-.172-.201-.257-.102.099-.31.233-.291.293.187.597-.204 1.131-.186 1.761v.001zM33.175 20.048c-.026.014-.133.105-.248.118-.105.012-.258-.024-.324-.099a16.847 16.847 0 0 1-.937-1.174c-.077-.106-.108-.393-.064-.418.144-.081.425-.166.487-.096.37.418.695.878 1.03 1.33.033.045.023.123.056.339zM17.514 23.325c.171.014.509.025.838.082.082.015.192.179.192.277s-.095.268-.177.289c-.64.163-1.277.203-1.844-.236-.032-.031-.057-.068-.072-.11s-.022-.087-.018-.131c.012-.066.112-.157.178-.162.246-.021.492-.009.903-.009zM37.576 9.508l.242.136c-.069.126-.111.329-.211.365a9.71 9.71 0 0 1-1.415.414c-.138.028-.339-.112-.467-.227-.147-.133-.059-.422.126-.451.545-.086 1.095-.152 1.724-.237zM21.28 26.138c.256.123.47.157.575.288.287.365.549.749.785 1.15.115.191.01.398-.184.453-.106.03-.299-.059-.377-.157a12.645 12.645 0 0 1-.867-1.212c-.061-.1.034-.301.068-.521zM31.328 10.934c.016-.112 0-.239.051-.288.069-.064.217-.118.288-.083.097.048.16.178.227.281.186.285.369.572.546.864.079.131.185.27.192.411.008.13-.07.3-.166.389-.053.05-.273.018-.327-.052-.354-.462-.779-.894-.81-1.522zM32.43 6.029c-.077.471-.107.818-.197 1.151a.949.949 0 0 1-.307.455c-.102.084-.279.072-.422.103-.011-.137-.053-.28-.029-.41.075-.402.175-.798.264-1.197.007-.031.005-.064.014-.094.071-.24.223-.424.467-.324.123.05.181.271.209.317zM25.82 9.095c.215.028.494.042.76.108.091.022.225.19.209.262-.028.129-.133.299-.243.338a.904.904 0 0 1-.54.003c-.307-.1-.592-.134-.898-.002-.201.086-.389-.004-.443-.209-.072-.275.13-.408.357-.447.241-.041.491-.035.799-.053zM30.601 22.641c-.087.39-.153.732-.247 1.067-.018.066-.153.154-.21.139-.102-.026-.245-.108-.266-.194a1.314 1.314 0 0 1-.015-.565c.072-.343.143-.668.008-1.018-.064-.168-.046-.435.202-.434.134 0 .326.17.386.31.098.224.104.488.142.696zM26.829 22.541c-.05.092-.074.2-.14.246-.404.285-.808.572-1.233.821-.108.064-.299.024-.437-.018-.203-.062-.245-.335-.077-.446.465-.305.932-.608 1.411-.889.077-.045.23.003.329.054.067.035.096.146.147.232zM21.686 4.212c.066.039.189.074.205.136.16.605.315 1.213.442 1.826.035.17-.184.265-.332.163-.463-.32-.752-1.504-.482-2 .028-.049.096-.074.166-.125zM27.413 5.932c-.14-.095-.29-.144-.311-.227-.022-.09.05-.242.128-.314.34-.312.696-.605 1.066-.878.125-.09.383-.154.479-.083.226.163.107.393-.05.561-.212.227-.422.466-.665.649-.187.138-.427.197-.647.293zM18.6 9.131l-.339.328c-.097-.107-.24-.196-.281-.325a23.548 23.548 0 0 1-.428-1.523c-.018-.07.038-.214.096-.238.094-.039.248-.055.32 0 .141.106.301.249.347.409.121.416.184.852.285 1.349zM14.89 17.535c-.311.584-.547 1.183-1.126 1.501-.097.053-.313-.015-.417-.1-.177-.144 0-.264.086-.387.272-.384.523-.783.812-1.152.074-.095.263-.141.392-.128.087.008.159.161.253.267zM18.402 17.584c.162.096.28.125.302.188.036.104.055.267 0 .339-.089.115-.241.181-.372.258-.34.2-.675.411-1.029.581a.459.459 0 0 1-.399-.034c-.197-.144-.128-.375.031-.477.485-.312.996-.584 1.467-.855zM35.978 14.938c-.125.289-.3.724-.509 1.143-.032.065-.234.1-.319.061-.079-.037-.166-.2-.15-.289a11.3 11.3 0 0 1 .317-1.382c.043-.137.237-.262.386-.308.055-.017.2.196.268.327.039.074.007.187.007.448zM14.793 11.467c.55.506.485 1.193.546 1.828.011.118-.132.286-.246.372-.06.045-.303-.027-.309-.068a37.791 37.791 0 0 1-.207-1.93c-.004-.055.125-.122.215-.201zM27.648 27.137c.092.025.183.055.272.091.33.157.663.31.985.483.153.082.307.184.417.314.127.151-.018.442-.195.402-.6-.133-1.185-.318-1.634-.778-.066-.068-.065-.238-.043-.351.013-.064.128-.108.199-.161zM20.352 11.652c.032.102.141.26.102.359a23.74 23.74 0 0 1-.672 1.546c-.029.063-.153.118-.227.108-.064-.008-.153-.101-.17-.171-.126-.567.271-1.582.713-1.837.046-.026.118-.004.254-.004zM37.496 20.26c-.069-.045-.213-.099-.288-.205-.03-.042.067-.234.15-.295.369-.275.745-.538 1.138-.773.106-.063.326-.068.404.003.072.066.082.314.018.405-.329.47-.744.828-1.421.864zM35.218 24.306c-.284-.03-.408-.033-.527-.061-.05-.011-.125-.072-.126-.112a.425.425 0 0 1 .065-.253.471.471 0 0 1 .23-.147c.439-.135.877-.271 1.323-.38.097-.024.3.042.313.098.029.134-.006.297-.057.432-.027.071-.136.131-.219.157-.381.107-.764.203-1.002.266zM22.012 21.059c-.031.137-.082.441-.181.727-.025.071-.216.14-.304.114s-.192-.175-.189-.268c.009-.53.035-1.061.087-1.588.011-.115.153-.217.235-.324.098.106.257.2.282.323.056.273.044.561.069 1.017zM42.564 4.474c0-1.123.265-1.974.795-2.554.536-.586 1.222-.879 2.059-.879s1.502.253 1.995.759c.5.506.749 1.314.749 2.425s-.265 1.95-.795 2.517c-.53.568-1.237.851-2.122.851-.764 0-1.391-.225-1.878-.676-.253-.234-.452-.558-.596-.972-.138-.42-.208-.91-.208-1.471zm2.827-3.341c-.608 0-1.108.278-1.499.833-.385.555-.578 1.37-.578 2.443s.184 1.857.551 2.351c.367.494.855.74 1.463.74.614 0 1.114-.278 1.499-.833.391-.561.587-1.373.587-2.434 0-1.067-.187-1.851-.56-2.35-.367-.5-.855-.75-1.463-.75zM49.724 7.556h-.749V1.078h.749v2.98h2.935v-2.98h.749v6.478h-.749V4.151h-2.935v3.405zM57.261 7.556h-.117l.786-6.478h.298l1.896 5.987 1.887-5.987h.298l.786 6.478h-.749l-.623-5.182-1.634 5.182h-.569l-1.652-5.117-.605 5.117zM68.095 1.078a.623.623 0 0 1 .172.453c0 .154-.033.312-.099.472l-1.616 3.359v2.193h-.749v-1.99l-1.806-4.488h.767l1.725 4.173 1.571-3.248c.066-.154.099-.315.099-.481s-.045-.296-.135-.389l.072-.056zM1.273 9.258a29.08 29.08 0 0 1 1.368-.033c.456 0 .933.049 1.432.147a5.034 5.034 0 0 1 1.496.554c.499.261.918.603 1.257 1.027.35.413.631.962.843 1.647s.318 1.517.318 2.495c0 .978-.159 1.859-.477 2.642-.308.772-.732 1.364-1.273 1.777-1.05.804-2.318 1.207-3.803 1.207-.52 0-1.066-.022-1.639-.065h-.796V9.257h1.273zm.048 11.268c.223.022.504.033.843.033s.594-.005.764-.016c.17-.011.403-.054.7-.13.297-.087.573-.201.827-.342s.52-.348.796-.62c.286-.283.53-.614.732-.995.456-.891.684-2.055.684-3.49 0-1.022-.122-1.902-.366-2.642-.244-.75-.525-1.305-.843-1.663a3.293 3.293 0 0 0-1.13-.848c-.446-.217-.801-.342-1.066-.375s-.573-.049-.923-.049-.69.016-1.018.049v11.089zM42.823 20.656h-.207V9.241h.541l6.619 10.551V9.241h.207v11.415h-1.162l-5.999-9.458v9.458zM59.781 9.241h.207v6.523c0 1.707-.329 2.962-.987 3.767-.658.794-1.517 1.19-2.578 1.19-.668 0-1.236-.06-1.702-.179a3.626 3.626 0 0 1-1.321-.701c-.849-.674-1.273-2.033-1.273-4.077V9.241h1.321v6.507c0 1.979.292 3.3.875 3.963.297.326.605.549.923.669.329.12.721.179 1.177.179 1.018 0 1.83-.381 2.434-1.142.615-.772.923-1.995.923-3.669V9.241zM65.415 20.656h-1.321V9.404h-2.753v-.163h6.842v.163h-2.769v11.252z"/></symbol>

<symbol id="icon-logo-tablet" viewBox="0 0 63 32"><path d="M37.207 15.991c0 .254-.007.509 0 .764.078 2.589-.648 4.921-1.813 7.12a33.402 33.402 0 0 0-1.101 2.258c-.278.633-.664 1.077-1.264 1.337-.335.144-.646.395-.927.653-1.293 1.189-2.761 2.04-4.33 2.64-1.042.398-2.116.748-3.248.733-.338-.004-.676.111-1.014.112s-.676-.121-1.011-.105c-1.46.07-2.813-.431-4.156-.956-1.466-.572-2.761-1.476-3.978-2.554-1.718-1.52-2.943-3.434-3.843-5.626-.485-1.181-.88-2.401-.992-3.711-.019-.218-.083-.433-.141-.644-.408-1.471-.174-2.913.079-4.378.193-1.121.392-2.228.769-3.292.995-2.814 2.575-5.118 4.763-6.928A13.028 13.028 0 0 1 21.086.582c2.548-.457 5.035-.128 7.448.939 1.204.534 2.34 1.211 3.332 2.107.926.836 1.76 1.813 2.549 2.813.715.906 1.222 1.985 1.675 3.085.708 1.72 1.169 3.499 1.122 5.412-.01.353-.003.704-.003 1.054zm-.978-3.484c-.07-.601-.114-1.297-.246-1.973-.376-1.944-1.388-3.462-2.736-4.701-.765-.705-1.6-1.317-2.422-1.94-.278-.211-.602-.405-.927-.47-.836-.171-1.682-.332-2.529-.38-1.471-.083-2.792-.506-3.903-1.644-.817-.837-1.707-.918-2.557-.181-.963.835-2.059 1.325-3.176 1.81-.819.355-1.607.803-2.394 1.246-.658.37-1.041.948-1.032 1.822.005.49-.197.9-.605 1.172-.341.228-.668.48-.979.754-.871.762-1.549 1.621-1.696 2.954-.116 1.054-.402 2.096-1.052 2.964a2.115 2.115 0 0 0-.387 1.043c-.06.788-.035 1.585-.018 2.378.005.212.088.44.185.626.224.441.468.869.732 1.283.637.986 1.191 1.996 1.319 3.249.124 1.213.651 2.202 1.542 2.957 1.291 1.094 2.535 2.255 3.845 3.32.704.574 1.458 1.076 2.387 1.192s1.839.398 2.672.918c.175.105.366.17.563.192 1.175.141 2.262-.183 3.294-.795.324-.192.657-.366.991-.533.806-.402 1.7-.665 2.402-1.225.781-.624 1.617-.9 2.513-1.074.387-.076.704-.253.956-.574.301-.38.579-.783.893-1.15.324-.379.558-.783.615-1.323.087-.829.406-1.56.81-2.263.684-1.188 1.073-2.5 1.276-3.895.053-.366.083-.676-.08-.998-.471-.93-.279-1.985-.428-2.975-.075-.535.098-1.12.171-1.787l-.002.001zm-5.67-9.287c-.199-.245-.262-.355-.352-.424-.163-.125-.34-.227-.513-.336-1.479-.927-3.098-1.377-4.753-1.701-.332-.065-.682-.036-1.021-.022-.088.004-.194.099-.25.185-.026.039.032.176.081.241.368.488.848.856 1.389 1.065a8.482 8.482 0 0 0 2.909.608c.42.013.84.101 1.258.165.357.056.714.124 1.251.218zM17.996 29.932c-.993-.903-1.862-1.709-2.748-2.495a100.12 100.12 0 0 0-2.231-1.904c-.084-.07-.217-.069-.401-.121.903 1.686 3.917 4.248 5.38 4.52zM11.309 8.869c.598-.509 1.152-1.044 1.76-1.487.852-.618 1.178-1.386.977-2.706-.605.55-1.036 1.213-1.503 1.816-.493.635-.858 1.392-1.269 2.103-.032.058.02.171.035.274zm20.186 19.245c-.558-.043-1.121.067-1.471.402-.665.636-1.455.956-2.26 1.274-.422.167-.821.412-1.218.645-.055.032-.065.204-.054.305.004.034.153.09.214.067.722-.274 1.469-.495 2.153-.861.839-.448 1.627-1.015 2.429-1.541.084-.052.128-.177.207-.292zm-21.331-8.821c-.161.526-.129.818-.028 1.128.28.861.45 1.77.954 2.522.187.279.225.903.57.768.304-.117-.052-.611-.073-.945-.08-1.273-.681-2.298-1.424-3.475zm5.415-15.847.075.126c.417-.172.838-.335 1.251-.519.898-.401 1.792-.809 2.684-1.224.18-.085.345-.22.498-.357.043-.039.035-.171.022-.252-.007-.036-.092-.076-.141-.078a.792.792 0 0 0-.246.045c-1.213.383-2.356.95-3.45 1.639-.256.161-.464.412-.693.621zm21.295 13.667c.073-.095.131-.134.135-.179.118-1.386-.014-2.76-.184-4.131-.008-.069-.094-.168-.153-.176-.064-.009-.165.05-.204.114a.791.791 0 0 0-.116.343c-.064 1.13.003 2.265.199 3.376.039.224.206.422.324.652zM9.871 13.287c.473-.201.544-.564.595-.892.124-.8.433-1.571.331-2.417-.495 1.01-.933 2.033-.925 3.31zm11.452 17.572c-1.061-.522-1.348-.577-2.293-.431.4.169.76.437 1.123.441.378.006.787.521 1.17-.011z"/><path d="M23.51 20.476c-.725-.015-1.223-.352-1.592-1.005-.344-.609-.915-.925-1.439-1.3-.66-.472-1.197-1.006-1.349-1.963-.106-.649.017-1.213.254-1.726.199-.429.554-.827.927-1.082.404-.276.739-.537.926-1.047.211-.587.744-.623 1.215-.729.444-.099.895-.163 1.333-.288.599-.17 1.142-.117 1.579.401.338.402.733.691 1.173.935.458.254.609.55.465 1.08-.098.36-.003.605.117.892.132.313.267.631.358.962.301 1.101-.045 2.027-.973 2.517-.575.304-1.016.709-1.159 1.42-.057.287-.218.45-.446.524-.459.15-.925.273-1.388.407zm3.045-4.615c.015-1.939-1.306-3.49-3.024-3.492-1.541 0-3.092 1.161-3.152 3.385-.048 1.78 1.284 3.438 3.021 3.445 2.116.012 3.113-1.623 3.154-3.337zm-6.193 1.854c0-.249.021-.376-.003-.49-.228-1.053-.376-2.096.141-3.111.037-.073-.049-.223-.077-.337-.101.036-.224.044-.301.114-.854.78-1.235 2.652.24 3.825zm3.171-5.832c.357.146.561.249.775.313.787.232 1.458.648 1.925 1.416.092.151.211.376.387.204.094-.092.124-.373.07-.514-.073-.187-.238-.42-.398-.456-.432-.101-.669-.449-.951-.753-.474-.506-1.003-.665-1.81-.21zm-.049 7.633-.011-.073c-.227 0-.456-.022-.679.009-.115.016-.219.124-.328.191.099.097.185.251.299.283.61.171 1.224.208 1.826-.054.103-.045.217-.104.282-.196a.507.507 0 0 0 .064-.323c-.005-.039-.147-.098-.217-.086-.413.072-.824.163-1.235.248l-.002.001zm3.118-1.989c.423-.087.611-.352.636-.76a7.884 7.884 0 0 0-.013-1.031c-.007-.09-.12-.171-.184-.256-.094.099-.285.232-.268.292.171.595-.187 1.127-.17 1.754v.001zM30.467 20.212c-.024.014-.122.105-.228.117-.096.013-.237-.023-.297-.099-.3-.377-.592-.764-.86-1.17-.07-.106-.099-.391-.059-.416.132-.081.39-.166.447-.096.34.417.639.875.946 1.325.03.045.021.122.052.338zM16.084 23.477c.157.014.467.025.77.082.075.015.176.179.176.276s-.087.267-.162.288c-.588.162-1.173.202-1.693-.235-.029-.03-.052-.068-.066-.11s-.02-.087-.016-.131c.011-.065.102-.157.164-.161.226-.021.452-.009.829-.009zM34.508 9.712l.222.135c-.063.126-.102.328-.194.364a8.484 8.484 0 0 1-1.299.413c-.127.028-.312-.111-.429-.226-.135-.133-.055-.421.116-.45.501-.086 1.005-.151 1.584-.236zM19.543 26.279c.235.122.432.157.528.287.263.363.504.746.721 1.145a.305.305 0 0 1-.169.451c-.098.03-.274-.058-.346-.157a12.347 12.347 0 0 1-.796-1.208c-.056-.1.031-.3.062-.519zM28.77 11.132c.015-.111 0-.238.047-.287.063-.064.199-.117.264-.083.089.047.147.177.208.28.17.284.339.57.501.861.073.13.17.269.176.41a.58.58 0 0 1-.152.388c-.049.05-.251.018-.3-.052-.325-.46-.715-.89-.744-1.517zM29.782 6.245c-.07.47-.099.815-.181 1.146a.95.95 0 0 1-.282.454c-.093.084-.256.072-.387.102-.011-.137-.049-.279-.027-.409.069-.4.161-.795.243-1.192.006-.031.005-.064.013-.094.065-.24.205-.422.429-.323.113.05.166.27.192.316zM23.712 9.3c.198.027.454.042.698.108.083.022.207.189.192.261-.025.129-.122.298-.224.337a.766.766 0 0 1-.496.003c-.282-.1-.544-.133-.825-.002-.184.086-.358-.004-.407-.209-.066-.274.119-.407.327-.445.222-.041.451-.034.733-.052zM28.103 22.795c-.08.389-.141.73-.227 1.063-.017.065-.141.153-.193.139-.094-.025-.225-.108-.244-.193a1.423 1.423 0 0 1-.014-.563c.066-.341.131-.665.007-1.014-.059-.167-.042-.434.186-.433.123 0 .3.169.355.309.09.223.096.487.131.693zM24.639 22.695c-.046.091-.068.199-.128.245-.371.284-.742.57-1.132.818-.1.063-.275.024-.402-.018-.186-.061-.225-.334-.07-.444.427-.304.856-.606 1.296-.886.07-.045.211.004.302.054.062.034.088.146.135.231zM19.916 4.436c.06.039.174.074.189.135.147.603.289 1.208.406 1.819.032.169-.169.264-.305.162-.426-.319-.691-1.499-.443-1.992.026-.049.088-.074.152-.124zM25.176 6.149c-.128-.095-.267-.144-.285-.226-.02-.089.046-.242.118-.313.312-.31.639-.603.979-.875.114-.09.352-.153.44-.083.208.162.099.391-.046.559-.194.226-.387.464-.611.646-.172.137-.392.197-.594.292zM17.082 9.336l-.311.327c-.089-.107-.22-.196-.258-.323a25.78 25.78 0 0 1-.393-1.518c-.016-.07.035-.213.088-.238.086-.039.228-.055.294 0 .129.106.277.248.319.407.111.415.169.849.261 1.344zM13.675 17.708c-.286.582-.502 1.178-1.034 1.496-.089.053-.287-.015-.383-.1-.163-.144 0-.263.079-.386.25-.382.48-.781.745-1.148.068-.094.242-.141.36-.128.08.008.146.16.233.266zM16.9 17.757c.149.096.257.124.277.188.033.103.05.266 0 .337-.082.114-.221.18-.342.257-.312.199-.62.409-.945.579a.39.39 0 0 1-.366-.034c-.181-.144-.118-.374.028-.475.446-.31.914-.582 1.348-.852zM33.041 15.122c-.115.288-.276.722-.467 1.139-.03.065-.215.1-.293.061-.073-.036-.153-.2-.138-.288.077-.464.162-.929.291-1.377.039-.137.218-.261.354-.306.051-.017.183.196.246.326.036.073.006.186.006.446zM13.585 11.663c.505.504.445 1.189.501 1.821.011.117-.121.285-.226.37-.055.045-.278-.027-.283-.068a39.72 39.72 0 0 1-.19-1.923c-.004-.055.115-.122.198-.2zM25.391 27.274c.085.025.168.055.25.091.303.157.609.309.905.481.141.081.282.183.383.313.117.151-.017.44-.18.4-.551-.132-1.089-.317-1.5-.775-.061-.068-.059-.237-.04-.35.012-.063.118-.107.182-.161zM18.69 11.847c.029.101.129.259.094.357a25.085 25.085 0 0 1-.617 1.54c-.027.062-.141.117-.208.107-.059-.008-.141-.101-.156-.171-.115-.565.249-1.576.654-1.83.042-.026.109-.004.233-.004zM34.435 20.423c-.063-.045-.195-.099-.264-.204-.027-.042.061-.233.138-.294a12.42 12.42 0 0 1 1.045-.77c.097-.063.299-.068.371.003.066.066.076.313.016.404-.302.468-.683.825-1.305.861zM32.343 24.454c-.261-.03-.375-.033-.484-.06-.046-.011-.115-.072-.115-.112a.457.457 0 0 1 .059-.252.429.429 0 0 1 .211-.147c.403-.135.806-.27 1.215-.379.089-.023.276.042.287.098a.87.87 0 0 1-.052.431c-.025.071-.125.131-.201.157-.35.107-.701.202-.92.265zM20.215 21.219c-.029.137-.076.439-.166.724-.023.071-.199.139-.28.113s-.176-.174-.174-.267c.009-.528.032-1.057.08-1.583.01-.115.141-.216.216-.323.09.106.236.2.259.321.051.272.04.559.064 1.013zM39.09 4.696c0-1.119.243-1.967.73-2.545.492-.584 1.122-.876 1.891-.876s1.379.252 1.833.756c.459.504.688 1.309.688 2.415s-.243 1.942-.73 2.508c-.486.565-1.136.848-1.949.848-.702 0-1.277-.224-1.725-.673-.232-.234-.415-.556-.547-.968-.127-.418-.191-.907-.191-1.466zm2.595-3.328c-.558 0-1.017.277-1.377.83-.354.553-.531 1.364-.531 2.434s.169 1.85.506 2.342c.337.492.785.738 1.343.738.564 0 1.023-.277 1.377-.83.359-.559.539-1.368.539-2.425 0-1.063-.171-1.844-.514-2.342-.337-.498-.785-.747-1.343-.747zM45.665 7.766h-.688V1.312h.688v2.969h2.695V1.312h.688v6.454h-.688V4.373h-2.695v3.393zM52.586 7.766h-.108l.721-6.454h.274l1.741 5.965 1.733-5.965h.274l.721 6.454h-.688l-.572-5.163-1.501 5.163h-.522l-1.517-5.098-.556 5.098zM62.536 1.313a.65.65 0 0 1 .158.452c0 .154-.03.31-.091.47l-1.484 3.347v2.185h-.688V5.785l-1.658-4.471h.705l1.584 4.158 1.443-3.236c.061-.154.091-.313.091-.479s-.041-.295-.124-.387l.066-.055zM1.169 9.462c.429-.022.848-.033 1.257-.033.419 0 .857.049 1.315.146.468.098.925.282 1.374.552.458.26.843.601 1.154 1.023.321.412.58.959.774 1.641s.292 1.511.292 2.486-.146 1.852-.438 2.632c-.282.769-.672 1.359-1.169 1.771-.964.802-2.129 1.202-3.492 1.202-.477 0-.979-.022-1.505-.065H0V9.461h1.169zm.044 11.226c.205.022.463.032.774.032s.546-.005.701-.016c.156-.011.37-.054.643-.13.273-.087.526-.2.76-.341s.477-.347.731-.617c.263-.282.487-.612.672-.991.419-.888.628-2.047.628-3.477 0-1.018-.112-1.895-.336-2.632-.224-.747-.482-1.3-.774-1.657a3.054 3.054 0 0 0-1.038-.845c-.409-.217-.736-.341-.979-.374s-.526-.049-.848-.049-.633.016-.935.049v11.048zM39.327 20.818h-.19V9.446h.497l6.079 10.511V9.446h.19v11.372h-1.067l-5.509-9.423v9.423zM54.901 9.446h.19v6.499c0 1.7-.302 2.951-.906 3.753-.604.791-1.393 1.186-2.367 1.186-.614 0-1.135-.06-1.563-.179a3.254 3.254 0 0 1-1.213-.699c-.779-.672-1.169-2.025-1.169-4.062V9.445h1.213v6.482c0 1.971.268 3.287.804 3.948.273.325.555.547.847.666.302.119.662.179 1.081.179.935 0 1.68-.379 2.236-1.137.565-.769.848-1.987.848-3.655V9.446zM60.075 20.818h-1.213V9.608h-2.528v-.162h6.283v.162h-2.543v11.21z"/></symbol>

<symbol id="icon-menu" viewBox="0 0 60 32"><path d="M2 0h56a2 2 0 1 1 0 4H2a2 2 0 1 1 0-4zM2 14h56a2 2 0 1 1 0 4H2a2 2 0 1 1 0-4zM2 28h56a2 2 0 1 1 0 4H2a2 2 0 1 1 0-4z"/></symbol>

<symbol id="icon-people" viewBox="0 0 32 32"><path fill="#674d40" style="fill:var(--color2, #674d40)" d="M11.887 0C8.594 0 5.911 3.077 5.911 6.856s2.682 6.856 5.976 6.856c3.293 0 5.976-3.077 5.976-6.856S15.181 0 11.887 0zm0 12.562c-2.749 0-4.98-2.566-4.98-5.713s2.236-5.713 4.98-5.713c2.749 0 4.98 2.566 4.98 5.713s-2.236 5.713-4.98 5.713zM24.126 2.846c-2.474 0-4.485 2.306-4.485 5.145s2.01 5.145 4.485 5.145c2.475 0 4.485-2.306 4.485-5.145s-2.01-5.145-4.485-5.145zm0 9.155c-1.925 0-3.489-1.795-3.489-4.003s1.564-4.003 3.489-4.003c1.925 0 3.489 1.795 3.489 4.003s-1.564 4.003-3.489 4.003z"/><path fill="#674d40" style="fill:var(--color2, #674d40)" d="M32.148 20.679c-.452-3.126-2.145-5.762-5.028-7.143 0 0-1.277 1.108-2.994 1.072-1.876-.042-2.994-1.072-2.994-1.072s-1.393.596-2.517 1.837c-1.039-1.058-2.792-1.921-2.792-1.921s-1.607 1.402-3.941 1.381c-2.45-.021-3.929-1.381-3.929-1.381s-5.297 2.089-6.415 9.176c0 0-1.198 3.757 1.576 9.372h17.554s1.246-2.488 1.466-4.003h8.731c2.145-3.729 1.283-7.318 1.283-7.318zM20.05 30.857H3.73c-2.132-4.648-1.21-8.04-1.21-8.04.519-3.554 2.511-6.554 5.358-8.075a7.13 7.13 0 0 0 8.022 0c2.847 1.521 4.839 4.521 5.358 8.075-.006 0 .88 4.178-1.21 8.04zm10.235-4.002h-7.949c.305-2.019-.098-4.227-.098-4.227-.36-2.495-1.387-4.746-2.89-6.484a7.16 7.16 0 0 1 1.705-1.318 5.556 5.556 0 0 0 6.141 0c2.108 1.157 3.587 3.393 3.972 6.042 0 0 .727 2.832-.88 5.986z"/></symbol>

<symbol id="icon-phone" viewBox="0 0 32 32"><path d="M29.43 20.469c-1.959 0-3.882-.299-5.705-.886-.893-.297-1.991-.025-2.536.521l-3.598 2.647c-4.172-2.171-6.743-4.675-8.939-8.711l2.636-3.415c.685-.667.931-1.64.636-2.554a17.324 17.324 0 0 1-.912-5.57c0-1.38-1.152-2.502-2.567-2.502H2.569C1.153-.001.001 1.122.001 2.501c0 15.816 13.202 28.682 29.43 28.682 1.416 0 2.568-1.122 2.568-2.502V22.97c0-1.38-1.152-2.502-2.568-2.502z"/></symbol>

<symbol id="icon-rate" viewBox="0 0 173 32"><path fill="#ab816c" style="fill:var(--color1, #ab816c)" d="M14.249 4.68c.383-1.179 2.051-1.179 2.435 0l1.908 5.872a1.28 1.28 0 0 0 1.217.884h6.174c1.24 0 1.756 1.587.752 2.316l-4.995 3.629a1.28 1.28 0 0 0-.465 1.431l1.908 5.872c.383 1.179-.967 2.16-1.97 1.431l-4.995-3.629a1.28 1.28 0 0 0-1.505 0l-4.995 3.629c-1.003.729-2.353-.252-1.97-1.431l1.908-5.872a1.28 1.28 0 0 0-.465-1.431l-4.995-3.629c-1.003-.729-.488-2.316.752-2.316h6.174c.555 0 1.046-.357 1.217-.884l1.908-5.872z"/><path fill="none" stroke="#ab816c" style="stroke:var(--color1, #ab816c)" stroke-width="1.28" d="M156.724 4.878c.192-.59 1.027-.59 1.217 0l1.908 5.872a1.919 1.919 0 0 0 1.825 1.327h6.175c.62 0 .878.793.376 1.158l-4.996 3.629a1.924 1.924 0 0 0-.698 2.147l1.908 5.872c.192.59-.484 1.08-.984.716l-4.996-3.629a1.92 1.92 0 0 0-2.257 0l-4.995 3.629c-.502.364-1.176-.126-.986-.716l1.908-5.872a1.92 1.92 0 0 0-.698-2.147l-4.995-3.629c-.502-.364-.244-1.158.376-1.158h6.173c.832 0 1.569-.536 1.827-1.327l1.907-5.872z"/><path fill="#ab816c" style="fill:var(--color1, #ab816c)" d="M120.649 4.68c.383-1.179 2.051-1.179 2.435 0l1.908 5.872a1.28 1.28 0 0 0 1.217.884h6.173c1.24 0 1.756 1.587.753 2.316l-4.995 3.629a1.28 1.28 0 0 0-.465 1.431l1.908 5.872c.384 1.179-.966 2.16-1.969 1.431l-4.995-3.629a1.28 1.28 0 0 0-1.505 0l-4.995 3.629c-1.003.729-2.353-.252-1.97-1.431l1.908-5.872a1.28 1.28 0 0 0-.465-1.431l-4.995-3.629c-1.003-.729-.488-2.316.752-2.316h6.174c.555 0 1.046-.357 1.217-.884l1.908-5.872zM85.183 4.68c.383-1.179 2.052-1.179 2.435 0l1.908 5.872a1.28 1.28 0 0 0 1.217.884h6.174c1.24 0 1.756 1.587.752 2.316l-4.995 3.629a1.28 1.28 0 0 0-.465 1.431l1.908 5.872c.383 1.179-.967 2.16-1.97 1.431l-4.995-3.629a1.28 1.28 0 0 0-1.505 0l-4.995 3.629c-1.003.729-2.353-.252-1.97-1.431l1.908-5.872a1.28 1.28 0 0 0-.465-1.431l-4.995-3.629c-1.003-.729-.488-2.316.752-2.316h6.174c.555 0 1.046-.357 1.217-.884l1.908-5.872zM49.716 4.68c.383-1.179 2.052-1.179 2.435 0l1.908 5.872a1.28 1.28 0 0 0 1.217.884h6.174c1.24 0 1.756 1.587.752 2.316l-4.995 3.629a1.28 1.28 0 0 0-.465 1.431l1.908 5.872c.383 1.179-.967 2.16-1.97 1.431l-4.995-3.629a1.28 1.28 0 0 0-1.505 0l-4.995 3.629c-1.003.729-2.353-.252-1.97-1.431l1.908-5.872a1.28 1.28 0 0 0-.465-1.431l-4.995-3.629c-1.003-.729-.488-2.316.752-2.316h6.174a1.28 1.28 0 0 0 1.217-.884l1.908-5.872z"/></symbol>

<symbol id="icon-twitter" viewBox="0 0 32 32"><path d="M32 5.441c-1.19.583-2.458.97-3.78 1.158 1.36-.908 2.398-2.334 2.886-4.053a12.307 12.307 0 0 1-4.16 1.775C25.742 2.888 24.026 2 22.154 2c-3.632 0-6.556 3.295-6.556 7.335 0 .581.044 1.14.152 1.672-5.454-.297-10.28-3.219-13.522-7.671a8.059 8.059 0 0 0-.898 3.707c0 2.54 1.17 4.791 2.914 6.095-1.054-.022-2.088-.364-2.964-.903v.08c0 3.564 2.274 6.524 5.256 7.206a5.905 5.905 0 0 1-1.72.241c-.42 0-.844-.027-1.242-.125.85 2.904 3.262 5.039 6.13 5.109-2.232 1.952-5.066 3.128-8.134 3.128-.538 0-1.054-.027-1.57-.101 2.906 2.095 6.35 3.291 10.064 3.291 12.072 0 18.672-11.178 18.672-20.868 0-.324-.01-.637-.024-.948C30.014 8.215 31.108 6.925 32 5.441z"/></symbol>
<symbol id="icon-up" viewBox="0 0 32 32"><path d="M0 16c0 8.837 7.163 16 16 16s16-7.163 16-16-7.163-16-16-16-16 7.163-16 16zM29 16c0 7.18-5.82 13-13 13s-13-5.82-13-13 5.82-13 13-13 13 5.82 13 13z"/><path d="M22.086 20.914l2.829-2.829-8.914-8.914-8.914 8.914 2.828 2.828 6.086-6.086z"/></symbol>
</defs>
</svg>